<?xml version="1.0" standalone="no"?><!DOCTYPE svg PUBLIC "-//W3C//DTD SVG 1.1//EN" "http://www.w3.org/Graphics/SVG/1.1/DTD/svg11.dtd"><svg t="1696646179561" class="icon" viewBox="0 0 1024 1024" version="1.1" xmlns="http://www.w3.org/2000/svg" p-id="1464" xmlns:xlink="http://www.w3.org/1999/xlink" width="200" height="200"><path d="M676 1024H42C20.24 1017.76 6.16 1003.84 0 982V928a39.28 39.28 0 0 0 2.16-4.213333c8.32-23.333333 25.733333-35.786667 50.666667-36.133334h15.36V78.186667v-11.973334a68.693333 68.693333 0 0 1 51.2-64C121.6 1.6 123.76 0.773333 125.946667 0.053333H592c46.56 13.92 57.066667 45.333333 56.773333 84.266667-1.04 144-0.4 287.84-0.4 431.76v13.093333H712c44.826667 0.266667 72.853333 28.24 73.093333 73.12 0.16 33.973333 0 67.946667 0 101.946667 0 10.666667-0.293333 21.333333 0.533334 32 0.693333 8.746667 6.506667 13.6 15.226666 14.4a16 16 0 0 0 17.546667-12.986667 39.733333 39.733333 0 0 0 0.853333-8.906666V380.933333c0-5.52-1.28-8.773333-6.666666-11.6-17.2-9.093333-27.2-23.813333-27.333334-43.36-0.426667-57.973333-0.666667-115.946667 0-173.92 0.373333-28.56 22.266667-49.066667 50.933334-49.6 22.64-0.453333 45.333333-0.373333 67.973333 0 16.56 0.266667 32.16 6.133333 40 20.533334 7.253333 13.333333 16.586667 14.853333 28.986667 13.52 1.973333-0.213333 4 0 6 0 20.88-1.893333 36.186667 5.84 44.56 25.653333V212c-7.093333 20.106667-21.546667 28.4-42.506667 26.96-8.186667-0.56-16.48 0-25.653333 0v11.946667c0 24 0.186667 48 0 72-0.213333 19.813333-8.48 35.68-25.946667 45.333333-6.586667 3.653333-8.266667 7.573333-8.266667 14.693333q0.373333 172.88 0 345.786667a147.466667 147.466667 0 0 1-4.693333 37.333333c-14.48 53.973333-67.786667 91.733333-121.546667 87.12-60.08-5.173333-106.666667-48.213333-111.333333-106.4-2.666667-34.106667-1.12-68.56-1.466667-102.853333v-11.733333h-33.146666v255.546666h18.666666a48.746667 48.746667 0 0 1 38.56 19.973334c15.626667 20.24 16 77.733333-1.146666 96.693333-7.653333 8.48-19.386667 13.2-29.226667 19.6zM102.906667 495.546667v391.253333H613.866667V495.546667z m511.333333-35.413334v-10.88-376c0-26.24-13.04-39.28-39.253333-39.28H142.133333c-26.666667 0-40 13.333333-40 40v386.08z m-255.466667 461.626667h-304c-14.64 0-20.613333 6.053333-20.8 20.56v21.973333c0 21.013333 4.64 25.6 25.973334 25.6h604.933333c10.933333-0.666667 17.12-6.746667 17.52-17.733333 0.32-8.986667 0-18 0-26.986667 0-18.666667-4.826667-23.386667-23.786667-23.386666z m290-324.266667c5.706667 0 10.346667 0.293333 14.933334 0 43.226667-3.04 54.746667 12.453333 53.333333 52.48a821.093333 821.093333 0 0 0 1.28 95.866667c3.466667 43.093333 45.92 76.666667 88.853333 73.066667 47.44-3.973333 80.32-39.44 80.426667-88 0.266667-115.626667 0-231.253333 0-346.88 0-2.666667-0.453333-5.12-0.666667-7.546667h-33.44v348.72a107.12 107.12 0 0 1-0.746666 14.933333c-4.133333 29.333333-29.093333 48.16-58.48 44.106667-25.68-3.546667-43.146667-24.986667-43.306667-53.92-0.213333-42.32 0-84.64 0-126.96 0-27.653333-12.586667-40-40.48-40h-50.96c-3.493333 0-6.986667 0.426667-10.666667 0.666667z m170.666667-359.546666v81.92c0 15.84 5.84 21.52 21.866667 21.6q29.013333 0.16 57.946666 0c16.426667 0 22.533333-6.026667 22.56-22.16V158.48c0-15.786667-6.106667-22-21.626666-22.08q-29.333333-0.213333-58.933334 0c-16 0-21.733333 5.76-21.813333 21.626667-0.186667 26.64-0.106667 53.28-0.106667 79.92z m170.16-66.666667h-33.2V204h33.093333z" p-id="1465" fill="#1296db"></path><path d="M0 982c6.16 21.84 20.24 35.76 42 42H0zM989.493333 171.36V204h-33.093333" fill="#1296db" p-id="1466"></path><path d="M529.146667 665.786667a51.066667 51.066667 0 0 1-0.133334 102.133333 51.066667 51.066667 0 1 1 0.133334-102.133333z m0 34.106666a17.04 17.04 0 0 0-17.12 17.04 16.986667 16.986667 0 0 0 33.973333 0.213334 16.853333 16.853333 0 0 0-16.853333-17.253334zM580.053333 580.426667a51.04 51.04 0 1 1-102.08-0.293334 51.04 51.04 0 0 1 102.08 0.293334z m-34.053333 0.16a16.64 16.64 0 0 0-16.88-17.12 16.826667 16.826667 0 0 0-17.066667 17.013333 16.986667 16.986667 0 0 0 33.946667 0zM529.04 253.84c0.24 89.733333-69.466667 166.293333-155.093333 172.106667-93.333333 6.32-171.466667-55.68-184.4-146.16-14.48-101.333333 64.64-194.053333 165.626666-194.266667 7.546667 0 14.88 1.306667 17.573334 8.586667a25.706667 25.706667 0 0 1-0.186667 16.853333c-3.04 7.733333-11.04 8.666667-18.666667 8.826667A132.933333 132.933333 0 0 0 276.853333 146.666667c-48.373333 35.44-67.573333 100.693333-46.346666 157.333333a136.986667 136.986667 0 0 0 142.186666 88c58.666667-5.493333 108.56-51.28 119.52-109.76a134.693333 134.693333 0 0 0-9.333333-82.026667c-0.8-1.813333-1.786667-3.6-2.453333-5.466666-3.253333-9.226667 0-18.266667 8-22.16 8.586667-4.186667 19.146667-1.466667 22.586666 8.16 6.56 18.373333 11.653333 37.333333 16.666667 56.16 1.706667 5.76 1.066667 12.426667 1.36 16.933333z" p-id="1467" fill="#1296db"></path><path d="M377.466667 273.12h-63.466667c-8.613333 0-16.88-0.453333-21.68-9.12-4.586667-8.266667-0.8-15.226667 3.466667-22.293333 15.013333-24.746667 29.786667-49.626667 44.693333-74.426667 7.84-13.066667 17.12-16.773333 26.666667-10.826667s10.133333 15.813333 2.373333 28.826667c-10.213333 17.093333-20.48 34.16-31.6 52.72 4.32 0.346667 7.386667 0.773333 10.426667 0.773333h56.933333c18.986667 0 26.48 13.066667 16.88 29.333334q-23.44 39.493333-47.226667 78.72c-6.933333 11.493333-16.586667 14.773333-25.68 9.066666s-10.106667-15.466667-3.173333-27.146666q15.52-26.16 31.093333-52.32c0.293333-0.453333 0.133333-1.2 0.293334-3.306667z" p-id="1468" fill="#1296db"></path><path d="M529.12 563.466667a16.64 16.64 0 0 1 16.88 17.12 17.226667 17.226667 0 0 1-17.493333 16.746666" fill="#1296db" p-id="1469"></path></svg>